<svg width="169" height="24" viewBox="0 0 169 24" fill="none" xmlns="http://www.w3.org/2000/svg">
<g clip-path="url(#clip0)">
<path fill-rule="evenodd" clip-rule="evenodd" d="M50.3823 0.267334H40.0933C39.0279 0.267334 38.2288 1.0001 38.2288 2.19934V21.5851C38.2288 22.5511 38.9946 23.3839 39.9268 23.3839C40.9592 23.3839 41.7583 22.5511 41.7583 21.5851V13.5577H47.9705C48.8364 13.5577 49.6022 12.8582 49.6022 11.9922C49.6022 11.0597 48.8364 10.3267 47.9705 10.3267H41.7583V3.53183H50.3823C51.2815 3.53183 52.014 2.83233 52.014 1.93284C52.014 1.0001 51.2815 0.267334 50.3823 0.267334Z" fill="#212224"/>
<path fill-rule="evenodd" clip-rule="evenodd" d="M60.8339 14.3228L64.2635 4.69663L67.693 14.3228H60.8339ZM66.7609 1.83188C66.3279 0.732629 65.3207 0.0998535 64.1553 0.0998535H63.9554C62.6901 0.0998535 62.1657 0.732629 61.7329 1.83188L54.5073 20.9846C54.1743 21.8837 54.5736 22.9829 55.4395 23.2829C56.4051 23.6159 57.4706 23.1496 57.8035 22.2504L59.6352 17.4871H68.8921L70.6901 22.2504C71.023 23.1496 72.0885 23.6159 73.0541 23.2829C73.92 22.9829 74.3195 21.8837 73.9865 20.9846L66.7609 1.83188Z" fill="#212224"/>
<path fill-rule="evenodd" clip-rule="evenodd" d="M89.8893 3.39733C92.3201 3.39733 93.6188 4.46311 95.0838 5.42933C95.7498 5.86212 96.9153 6.0621 97.5812 5.32934C98.4136 4.3968 98.0805 3.26429 97.4145 2.73108C95.3169 1.09925 92.9196 0 89.8893 0C83.3962 0 78.3015 5.26261 78.3015 11.7912C78.3015 18.3198 83.3962 23.5493 89.8893 23.5493C92.9196 23.5493 95.3169 22.4501 97.4145 20.8178C98.0805 20.285 98.4136 19.1525 97.5812 18.22C96.9153 17.487 95.7498 17.6868 95.0838 18.12C93.6188 19.0858 92.3201 20.1518 89.8893 20.1518C85.3275 20.1518 81.8311 16.4212 81.8311 11.7912C81.8311 7.16135 85.3275 3.39733 89.8893 3.39733Z" fill="#212224"/>
<path fill-rule="evenodd" clip-rule="evenodd" d="M118.118 0.164795H103.999C103.1 0.164795 102.334 0.942608 102.334 1.96818C102.334 2.92282 103.1 3.66548 103.999 3.66548H118.118C119.017 3.66548 119.782 2.92282 119.782 1.96818C119.782 0.942608 119.017 0.164795 118.118 0.164795Z" fill="#212224"/>
<path fill-rule="evenodd" clip-rule="evenodd" d="M109.294 6.32568V21.5841C109.294 22.5501 110.06 23.3828 110.992 23.3828C112.024 23.3828 112.823 22.5501 112.823 21.5841V9.85647C112.823 7.90636 111.243 6.32568 109.294 6.32568Z" fill="#212224"/>
<path fill-rule="evenodd" clip-rule="evenodd" d="M133.861 20.0853C129.333 20.0853 125.803 16.388 125.803 11.7914C125.803 7.19461 129.333 3.46406 133.861 3.46406C138.423 3.46406 141.953 7.19461 141.953 11.7914C141.953 16.388 138.423 20.0853 133.861 20.0853ZM133.861 0C127.335 0 122.273 5.26261 122.273 11.7914C122.273 18.2865 127.335 23.5493 133.861 23.5493C140.421 23.5493 145.515 18.2865 145.515 11.7914C145.515 5.26261 140.421 0 133.861 0Z" fill="#212224"/>
<path fill-rule="evenodd" clip-rule="evenodd" d="M155.343 11.7136C155.336 11.7136 155.33 11.7077 155.33 11.7004V3.65973C155.33 3.65257 155.336 3.64647 155.343 3.64647H160.89C163.338 3.64647 164.397 5.7553 164.397 7.69678C164.397 9.67173 163.305 11.7136 160.757 11.7136H155.343ZM165.005 13.8692C165.003 13.8635 165.005 13.857 165.01 13.8536C167.025 12.5116 167.905 10.1264 167.905 7.69678C167.905 4.01464 165.886 0.365967 160.956 0.365967H153.676C152.617 0.365967 151.822 1.10252 151.822 2.30766V21.7892C151.822 22.7598 152.583 23.5968 153.51 23.5968C154.536 23.5968 155.33 22.7598 155.33 21.7892V14.9737C155.33 14.9663 155.335 14.9604 155.342 14.9604C155.638 14.9596 161.464 14.9461 161.825 14.9209C161.831 14.9204 161.834 14.9238 161.836 14.9291L165.426 22.6025C165.686 23.2614 166.311 23.662 166.973 23.662C167.24 23.662 167.513 23.5967 167.769 23.4565C168.522 23.0448 168.813 22.0946 168.495 21.2904L165.005 13.8692Z" fill="#212224"/>
<path fill-rule="evenodd" clip-rule="evenodd" d="M14.6289 20.0488H9.91003C8.95423 20.0488 8.17969 20.8323 8.17969 21.799C8.17969 22.7656 8.95423 23.5493 9.91003 23.5493H14.6289C15.5845 23.5493 16.3592 22.7656 16.3592 21.799C16.3592 20.8323 15.5845 20.0488 14.6289 20.0488Z" fill="#40C9A7"/>
<path fill-rule="evenodd" clip-rule="evenodd" d="M3.30336 20.0488H1.73034C0.774752 20.0488 0 20.8323 0 21.799C0 22.7656 0.774752 23.5493 1.73034 23.5493H3.30336C4.25895 23.5493 5.0337 22.7656 5.0337 21.799C5.0337 20.8323 4.25895 20.0488 3.30336 20.0488Z" fill="#FF8934"/>
<path fill-rule="evenodd" clip-rule="evenodd" d="M14.6292 0.319336H1.73083C0.775032 0.319336 0.000488281 1.10304 0.000488281 2.06968C0.000488281 3.03631 0.775032 3.81981 1.73083 3.81981H14.6292C15.5848 3.81981 16.3596 3.03631 16.3596 2.06968C16.3596 1.10304 15.5848 0.319336 14.6292 0.319336Z" fill="#FF8934"/>
<path fill-rule="evenodd" clip-rule="evenodd" d="M14.6289 10.1833H13.3705C12.4149 10.1833 11.6401 10.9671 11.6401 11.9337C11.6401 12.9003 12.4149 13.684 13.3705 13.684H14.6289C15.5844 13.684 16.3592 12.9003 16.3592 11.9337C16.3592 10.9671 15.5844 10.1833 14.6289 10.1833Z" fill="#40C9A7"/>
<path fill-rule="evenodd" clip-rule="evenodd" d="M8.49418 11.9337C8.49418 10.9671 7.71942 10.1833 6.76383 10.1833H1.73034C0.774752 10.1833 0 10.9671 0 11.9337C0 12.9003 0.774752 13.684 1.73034 13.684H6.76383C7.71942 13.684 8.49418 12.9003 8.49418 11.9337Z" fill="#FF8934"/>
<path fill-rule="evenodd" clip-rule="evenodd" d="M21.2355 0.318115C20.2799 0.318115 19.5051 1.10182 19.5051 2.06846V21.799C19.5051 22.7657 20.2799 23.5492 21.2355 23.5492C22.1911 23.5492 22.9656 22.7657 22.9656 21.799V2.06846C22.9656 1.10182 22.1911 0.318115 21.2355 0.318115Z" fill="#40C9A7"/>
</g>
<defs>
<clipPath id="clip0">
<rect width="169" height="23.9579" fill="white"/>
</clipPath>
</defs>
</svg>
